<svg width="103" height="69" viewBox="0 0 103 69" fill="none" xmlns="http://www.w3.org/2000/svg">
<g filter="url(#filter0_d_109_2)">
<path d="M4 0H89C-19.7667 30.0981 24.6732 40.8532 89 60.9032H4V0Z" fill="#201E20"/>
<path d="M26.48 50.244C25.952 50.268 25.544 50.172 25.256 49.956C24.944 49.74 24.836 49.332 24.932 48.732C24.932 48.66 24.956 48.552 25.004 48.408C25.052 48.264 25.112 48.168 25.184 48.12C25.16 48.72 25.232 49.14 25.4 49.38C25.568 49.62 25.844 49.74 26.228 49.74C27.164 49.74 28.124 49.44 29.108 48.84C30.116 48.24 31.112 47.436 32.096 46.428C31.856 46.356 31.544 46.212 31.16 45.996C30.8 45.804 30.524 45.648 30.332 45.528C29.372 44.832 28.892 44.028 28.892 43.116C28.892 42.42 29.204 41.664 29.828 40.848C30.452 40.032 31.472 39.204 32.888 38.364C33.8 37.812 34.856 37.32 36.056 36.888C37.256 36.456 38.372 36.108 39.404 35.844C39.764 35.148 40.112 34.464 40.448 33.792C40.784 33.12 41.108 32.448 41.42 31.776C41.54 31.512 41.756 31.008 42.068 30.264C42.38 29.52 42.728 28.644 43.112 27.636C43.496 26.628 43.856 25.56 44.192 24.432C44.552 23.28 44.852 22.164 45.092 21.084C45.332 20.004 45.452 19.044 45.452 18.204C45.452 17.388 45.308 16.752 45.02 16.296C44.756 15.84 44.276 15.612 43.58 15.612H43.544C43.352 15.612 43.256 15.552 43.256 15.432C43.256 15.312 43.376 15.228 43.616 15.18C44.768 15.06 45.572 15.336 46.028 16.008C46.484 16.68 46.712 17.568 46.712 18.672C46.712 18.864 46.7 19.068 46.676 19.284C46.676 19.5 46.664 19.728 46.64 19.968C46.784 20.088 46.88 20.292 46.928 20.58C47.072 21.348 47.216 22.356 47.36 23.604C47.528 24.852 47.72 26.22 47.936 27.708C48.152 29.196 48.404 30.708 48.692 32.244C49.004 33.756 49.364 35.184 49.772 36.528C50.204 37.848 50.708 38.964 51.284 39.876C51.404 40.068 51.572 40.32 51.788 40.632C52.004 40.92 52.268 41.184 52.58 41.424C52.892 41.664 53.24 41.784 53.624 41.784C54.032 41.784 54.452 41.616 54.884 41.28C55.268 40.968 55.628 40.536 55.964 39.984C56.3 39.432 56.612 38.844 56.9 38.22C57.044 37.956 57.176 37.824 57.296 37.824C57.416 37.824 57.5 37.896 57.548 38.04C57.62 38.16 57.644 38.28 57.62 38.4C57.524 38.712 57.32 39.084 57.008 39.516C56.72 39.924 56.42 40.308 56.108 40.668C55.796 41.004 55.544 41.244 55.352 41.388C54.92 41.724 54.5 41.964 54.092 42.108C53.708 42.276 53.348 42.36 53.012 42.36C52.22 42.36 51.524 42.06 50.924 41.46C50.348 40.836 49.844 40.188 49.412 39.516C48.812 38.556 48.332 37.344 47.972 35.88C47.636 34.416 47.372 32.832 47.18 31.128C46.988 29.424 46.832 27.744 46.712 26.088C46.616 24.432 46.508 22.92 46.388 21.552C46.1 22.896 45.704 24.276 45.2 25.692C44.696 27.108 44.18 28.416 43.652 29.616C43.148 30.792 42.728 31.704 42.392 32.352C41.864 33.432 41.288 34.512 40.664 35.592C41.768 35.328 42.92 35.088 44.12 34.872C45.32 34.656 46.376 34.452 47.288 34.26H47.396C47.492 34.26 47.54 34.296 47.54 34.368C47.54 34.44 47.48 34.536 47.36 34.656C47.24 34.776 47.084 34.86 46.892 34.908C45.86 35.1 44.744 35.328 43.544 35.592C42.344 35.832 41.216 36.096 40.16 36.384C39.056 38.28 37.94 40.08 36.812 41.784C35.684 43.488 34.448 45 33.104 46.32C34.016 46.608 35.18 46.752 36.596 46.752H36.668C36.86 46.752 36.956 46.8 36.956 46.896C36.956 47.04 36.812 47.112 36.524 47.112C35.852 47.136 35.192 47.1 34.544 47.004C33.896 46.932 33.296 46.812 32.744 46.644C31.688 47.676 30.62 48.504 29.54 49.128C28.484 49.776 27.464 50.148 26.48 50.244ZM32.456 46.068C33.608 44.868 34.724 43.464 35.804 41.856C36.908 40.248 37.94 38.568 38.9 36.816C38.588 36.912 38.264 37.02 37.928 37.14C37.592 37.26 37.268 37.404 36.956 37.572C36.548 37.764 35.996 38.04 35.3 38.4C34.604 38.76 33.908 39.144 33.212 39.552C32.54 39.936 32.024 40.284 31.664 40.596C31.184 41.028 30.836 41.448 30.62 41.856C30.404 42.264 30.296 42.66 30.296 43.044C30.296 43.38 30.356 43.704 30.476 44.016C30.62 44.328 30.788 44.628 30.98 44.916C31.1 45.06 31.316 45.252 31.628 45.492C31.964 45.756 32.24 45.948 32.456 46.068ZM61.8646 43.8C61.0966 43.8 60.5086 43.44 60.1006 42.72C59.6926 42.024 59.4886 41.256 59.4886 40.416C59.4886 39.624 59.6206 38.796 59.8846 37.932C60.1486 37.068 60.4726 36.216 60.8566 35.376C61.2646 34.536 61.6846 33.768 62.1166 33.072C61.6846 33.24 61.2766 33.324 60.8926 33.324C60.7006 33.324 60.5326 33.3 60.3886 33.252C60.2446 33.204 60.1246 33.168 60.0286 33.144C59.9086 33.432 59.6926 33.912 59.3806 34.584C59.0926 35.256 58.7806 35.964 58.4446 36.708C58.1326 37.428 57.8566 38.04 57.6166 38.544C57.2326 39.36 56.8966 39.768 56.6086 39.768C56.4646 39.768 56.3926 39.672 56.3926 39.48C56.3926 39.336 56.4526 39.144 56.5726 38.904C57.1246 37.872 57.6406 36.852 58.1206 35.844C58.6246 34.836 59.0806 33.864 59.4886 32.928C59.4406 32.808 59.3926 32.652 59.3446 32.46C59.2966 32.244 59.2726 32.016 59.2726 31.776C59.2726 31.512 59.2966 31.236 59.3446 30.948C59.4166 30.636 59.5126 30.336 59.6326 30.048C59.7046 29.88 59.8366 29.64 60.0286 29.328C60.2206 28.992 60.4366 28.692 60.6766 28.428C60.9166 28.14 61.1446 27.996 61.3606 27.996C61.7686 27.996 61.9726 28.212 61.9726 28.644C61.9726 29.052 61.8406 29.52 61.5766 30.048C61.3366 30.576 61.0846 31.068 60.8206 31.524C60.5566 31.956 60.4246 32.28 60.4246 32.496C60.4246 32.688 60.5206 32.784 60.7126 32.784C60.9766 32.784 61.3006 32.652 61.6846 32.388C62.0926 32.1 62.4166 31.836 62.6566 31.596C62.7766 31.476 62.9686 31.296 63.2326 31.056C63.4966 30.792 63.7486 30.66 63.9886 30.66C64.2286 30.66 64.3846 30.732 64.4566 30.876C64.5526 31.02 64.6006 31.188 64.6006 31.38C64.6006 31.596 64.5046 31.872 64.3126 32.208C64.1206 32.52 63.8926 32.832 63.6286 33.144C63.3886 33.456 63.1846 33.72 63.0166 33.936C62.6806 34.44 62.2966 35.076 61.8646 35.844C61.4326 36.612 61.0606 37.44 60.7486 38.328C60.4366 39.192 60.2806 40.02 60.2806 40.812C60.2806 41.34 60.4126 41.892 60.6766 42.468C60.9406 43.044 61.3006 43.332 61.7566 43.332C62.1646 43.332 62.5966 43.116 63.0526 42.684C63.5326 42.252 63.9766 41.736 64.3846 41.136C64.8166 40.536 65.1886 39.96 65.5006 39.408C65.8366 38.856 66.0646 38.472 66.1846 38.256C66.2326 38.136 66.3166 37.992 66.4366 37.824C66.5566 37.632 66.7006 37.536 66.8686 37.536C67.0126 37.536 67.0846 37.608 67.0846 37.752C67.0846 37.872 67.0486 38.016 66.9766 38.184C66.9286 38.328 66.8806 38.46 66.8326 38.58C66.6166 39.084 66.3526 39.612 66.0406 40.164C65.7286 40.716 65.5126 41.088 65.3926 41.28C65.0566 41.832 64.5526 42.384 63.8806 42.936C63.2326 43.512 62.5606 43.8 61.8646 43.8ZM69.4547 47.76C69.2147 47.76 68.9627 47.604 68.6987 47.292C68.4587 47.004 68.2307 46.596 68.0147 46.068C67.6547 45.204 67.4027 44.292 67.2587 43.332C67.1147 42.396 67.0427 41.448 67.0427 40.488C67.0427 39.432 67.1147 38.4 67.2587 37.392C67.4027 36.384 67.5587 35.472 67.7267 34.656C67.8467 34.08 67.9907 33.468 68.1587 32.82C68.3267 32.172 68.4827 31.656 68.6267 31.272C68.4827 31.296 68.2547 31.38 67.9427 31.524C67.6307 31.668 67.3067 31.812 66.9707 31.956C66.6587 32.1 66.3827 32.172 66.1427 32.172C65.7827 32.172 65.6027 31.968 65.6027 31.56C65.6027 31.344 65.6747 31.152 65.8187 30.984C65.9867 30.816 66.1907 30.684 66.4307 30.588C66.9107 30.372 67.4387 30.216 68.0147 30.12C68.5907 30 68.9747 29.88 69.1667 29.76L70.1027 27.384C70.1987 27.144 70.3667 26.76 70.6067 26.232C70.8707 25.68 71.1707 25.092 71.5067 24.468C71.8667 23.844 72.2147 23.28 72.5507 22.776C72.8147 22.392 73.0667 22.092 73.3067 21.876C73.5467 21.636 73.8107 21.516 74.0987 21.516C74.5307 21.516 74.7467 21.684 74.7467 22.02C74.7467 22.212 74.6627 22.5 74.4947 22.884C74.3507 23.268 74.0747 23.772 73.6667 24.396C73.2107 25.116 72.7427 25.836 72.2627 26.556C71.8067 27.252 71.4107 27.984 71.0747 28.752C71.0507 28.848 70.9907 29.004 70.8947 29.22C70.8227 29.412 70.7627 29.532 70.7147 29.58L71.4347 29.472C71.6267 29.448 71.8427 29.436 72.0827 29.436C72.3227 29.412 72.5867 29.4 72.8747 29.4C73.2827 29.4 73.6667 29.424 74.0267 29.472C74.4107 29.496 74.7227 29.556 74.9627 29.652C75.0827 29.7 75.1907 29.76 75.2867 29.832C75.4067 29.88 75.4667 29.928 75.4667 29.976C75.4667 30.072 75.1547 30.12 74.5307 30.12C74.1707 30.12 73.6547 30.18 72.9827 30.3C72.3347 30.42 71.5907 30.612 70.7507 30.876C70.3427 30.996 70.0667 31.164 69.9227 31.38C69.7787 31.596 69.5867 32.112 69.3467 32.928C68.9867 34.224 68.6987 35.472 68.4827 36.672C68.2667 37.848 68.0987 39.048 67.9787 40.272C67.9547 40.512 67.9307 40.764 67.9067 41.028C67.9067 41.292 67.9067 41.58 67.9067 41.892C67.9067 42.708 67.9787 43.56 68.1227 44.448C68.2907 45.336 68.5307 46.104 68.8427 46.752C68.9147 46.896 68.9867 47.028 69.0587 47.148C69.1547 47.268 69.2627 47.352 69.3827 47.4C69.5507 47.472 69.6347 47.556 69.6347 47.652C69.6347 47.724 69.5747 47.76 69.4547 47.76Z" fill="#E0A96D"/>
</g>
<defs>
<filter id="filter0_d_109_2" x="0" y="0" width="93" height="68.9032" filterUnits="userSpaceOnUse" color-interpolation-filters="sRGB">
<feFlood flood-opacity="0" result="BackgroundImageFix"/>
<feColorMatrix in="SourceAlpha" type="matrix" values="0 0 0 0 0 0 0 0 0 0 0 0 0 0 0 0 0 0 127 0" result="hardAlpha"/>
<feOffset dy="4"/>
<feGaussianBlur stdDeviation="2"/>
<feComposite in2="hardAlpha" operator="out"/>
<feColorMatrix type="matrix" values="0 0 0 0 0 0 0 0 0 0 0 0 0 0 0 0 0 0 0.5 0"/>
<feBlend mode="normal" in2="BackgroundImageFix" result="effect1_dropShadow_109_2"/>
<feBlend mode="normal" in="SourceGraphic" in2="effect1_dropShadow_109_2" result="shape"/>
</filter>
</defs>
</svg>
